<svg width="171" height="57" viewBox="0 0 171 57" fill="none" xmlns="http://www.w3.org/2000/svg">
<rect width="171" height="57" rx="5" fill="#3A68B8"/>
<path d="M37.6367 28.2461H42.9688V35.4141C42.2201 35.6615 41.4453 35.8535 40.6445 35.9902C39.8438 36.127 38.9453 36.1953 37.9492 36.1953C36.4974 36.1953 35.2669 35.9089 34.2578 35.3359C33.2552 34.7565 32.4935 33.9199 31.9727 32.8262C31.4518 31.7259 31.1914 30.401 31.1914 28.8516C31.1914 27.3607 31.4811 26.0684 32.0605 24.9746C32.64 23.8743 33.4831 23.0247 34.5898 22.4258C35.6966 21.8203 37.0378 21.5176 38.6133 21.5176C39.388 21.5176 40.1367 21.5957 40.8594 21.752C41.5885 21.9017 42.2559 22.11 42.8613 22.377L42.041 24.3105C41.5592 24.0827 41.0189 23.8906 40.4199 23.7344C39.821 23.5781 39.1992 23.5 38.5547 23.5C37.5326 23.5 36.6504 23.7214 35.9082 24.1641C35.1725 24.6068 34.6061 25.2318 34.209 26.0391C33.8118 26.8398 33.6133 27.7871 33.6133 28.8809C33.6133 29.9421 33.7728 30.873 34.0918 31.6738C34.4108 32.4746 34.9089 33.0996 35.5859 33.5488C36.2695 33.9915 37.1517 34.2129 38.2324 34.2129C38.7728 34.2129 39.2318 34.1836 39.6094 34.125C39.987 34.0664 40.3353 34.0013 40.6543 33.9297V30.248H37.6367V28.2461ZM50.459 24.9844C51.4225 24.9844 52.2493 25.1829 52.9395 25.5801C53.6296 25.9772 54.1602 26.5404 54.5312 27.2695C54.9023 27.9987 55.0879 28.8711 55.0879 29.8867V31.1172H47.8711C47.8971 32.1654 48.1771 32.9727 48.7109 33.5391C49.2513 34.1055 50.0065 34.3887 50.9766 34.3887C51.6667 34.3887 52.2852 34.3236 52.832 34.1934C53.3854 34.0566 53.9551 33.8581 54.541 33.5977V35.4629C54.0007 35.7168 53.4505 35.9023 52.8906 36.0195C52.3307 36.1367 51.6602 36.1953 50.8789 36.1953C49.8177 36.1953 48.8835 35.9902 48.0762 35.5801C47.2754 35.1634 46.6471 34.5449 46.1914 33.7246C45.7422 32.9043 45.5176 31.8854 45.5176 30.668C45.5176 29.457 45.7227 28.4284 46.1328 27.582C46.543 26.7357 47.1191 26.0911 47.8613 25.6484C48.6035 25.2057 49.4694 24.9844 50.459 24.9844ZM50.459 26.7129C49.7363 26.7129 49.1504 26.9473 48.7012 27.416C48.2585 27.8848 47.998 28.5716 47.9199 29.4766H52.8418C52.8353 28.9362 52.7441 28.4577 52.5684 28.041C52.3991 27.6243 52.1387 27.2988 51.7871 27.0645C51.4421 26.8301 50.9993 26.7129 50.459 26.7129ZM61.6992 34.3398C61.9987 34.3398 62.2949 34.3138 62.5879 34.2617C62.8809 34.2031 63.1478 34.1348 63.3887 34.0566V35.7949C63.1348 35.9056 62.806 36 62.4023 36.0781C61.9987 36.1562 61.5788 36.1953 61.1426 36.1953C60.5306 36.1953 59.9805 36.0944 59.4922 35.8926C59.0039 35.6842 58.6165 35.3294 58.3301 34.8281C58.0436 34.3268 57.9004 33.6335 57.9004 32.748V26.9375H56.4258V25.9121L58.0078 25.1016L58.7598 22.7871H60.2051V25.1895H63.3008V26.9375H60.2051V32.7188C60.2051 33.2656 60.3418 33.6725 60.6152 33.9395C60.8887 34.2064 61.25 34.3398 61.6992 34.3398ZM79.2578 32.1133C79.2578 32.9596 79.0495 33.6888 78.6328 34.3008C78.2227 34.9128 77.6302 35.3815 76.8555 35.707C76.0872 36.0326 75.1693 36.1953 74.1016 36.1953C73.5807 36.1953 73.0827 36.166 72.6074 36.1074C72.1322 36.0488 71.6829 35.9642 71.2598 35.8535C70.8431 35.7363 70.4622 35.5964 70.1172 35.4336V33.2266C70.6966 33.4805 71.3444 33.7116 72.0605 33.9199C72.7767 34.1217 73.5059 34.2227 74.248 34.2227C74.8535 34.2227 75.3548 34.1445 75.752 33.9883C76.1556 33.8255 76.4551 33.5977 76.6504 33.3047C76.8457 33.0052 76.9434 32.6569 76.9434 32.2598C76.9434 31.8366 76.8294 31.4785 76.6016 31.1855C76.3737 30.8926 76.0286 30.6257 75.5664 30.3848C75.1107 30.1374 74.5378 29.8737 73.8477 29.5938C73.3789 29.4049 72.9297 29.1901 72.5 28.9492C72.0768 28.7083 71.6992 28.4251 71.3672 28.0996C71.0352 27.7741 70.7715 27.39 70.5762 26.9473C70.3874 26.498 70.293 25.9707 70.293 25.3652C70.293 24.5579 70.485 23.8678 70.8691 23.2949C71.2598 22.722 71.8066 22.2826 72.5098 21.9766C73.2194 21.6706 74.0462 21.5176 74.9902 21.5176C75.7389 21.5176 76.4421 21.5957 77.0996 21.752C77.7637 21.9082 78.4147 22.1296 79.0527 22.416L78.3105 24.3008C77.7246 24.0599 77.1549 23.8678 76.6016 23.7246C76.0547 23.5814 75.4948 23.5098 74.9219 23.5098C74.4271 23.5098 74.0072 23.5846 73.6621 23.7344C73.3171 23.8841 73.0534 24.0957 72.8711 24.3691C72.6953 24.6361 72.6074 24.9551 72.6074 25.3262C72.6074 25.7428 72.7083 26.0944 72.9102 26.3809C73.1185 26.6608 73.4375 26.918 73.8672 27.1523C74.3034 27.3867 74.8633 27.6471 75.5469 27.9336C76.3346 28.2591 77.002 28.6009 77.5488 28.959C78.1022 29.3171 78.5254 29.7467 78.8184 30.248C79.1113 30.7428 79.2578 31.3646 79.2578 32.1133ZM85.8008 34.3398C86.1003 34.3398 86.3965 34.3138 86.6895 34.2617C86.9824 34.2031 87.2493 34.1348 87.4902 34.0566V35.7949C87.2363 35.9056 86.9076 36 86.5039 36.0781C86.1003 36.1562 85.6803 36.1953 85.2441 36.1953C84.6322 36.1953 84.082 36.0944 83.5938 35.8926C83.1055 35.6842 82.7181 35.3294 82.4316 34.8281C82.1452 34.3268 82.002 33.6335 82.002 32.748V26.9375H80.5273V25.9121L82.1094 25.1016L82.8613 22.7871H84.3066V25.1895H87.4023V26.9375H84.3066V32.7188C84.3066 33.2656 84.4434 33.6725 84.7168 33.9395C84.9902 34.2064 85.3516 34.3398 85.8008 34.3398ZM93.9258 24.9844C95.293 24.9844 96.3249 25.2871 97.0215 25.8926C97.7246 26.498 98.0762 27.4421 98.0762 28.7246V36H96.4453L96.0059 34.4668H95.9277C95.6217 34.8574 95.306 35.1797 94.9805 35.4336C94.6549 35.6875 94.2773 35.8763 93.8477 36C93.4245 36.1302 92.9069 36.1953 92.2949 36.1953C91.6504 36.1953 91.0742 36.0781 90.5664 35.8438C90.0586 35.6029 89.6582 35.2383 89.3652 34.75C89.0723 34.2617 88.9258 33.6432 88.9258 32.8945C88.9258 31.7812 89.3392 30.9447 90.166 30.3848C90.9993 29.8249 92.2559 29.5156 93.9355 29.457L95.8105 29.3887V28.8223C95.8105 28.0736 95.6348 27.5397 95.2832 27.2207C94.9382 26.9017 94.4499 26.7422 93.8184 26.7422C93.278 26.7422 92.7539 26.8203 92.2461 26.9766C91.7383 27.1328 91.2435 27.3249 90.7617 27.5527L90.0195 25.9316C90.5469 25.6517 91.1458 25.4238 91.8164 25.248C92.4935 25.0723 93.1966 24.9844 93.9258 24.9844ZM95.8008 30.834L94.4043 30.8828C93.2585 30.9219 92.4544 31.1172 91.9922 31.4688C91.5299 31.8203 91.2988 32.3021 91.2988 32.9141C91.2988 33.4479 91.4583 33.8385 91.7773 34.0859C92.0964 34.3268 92.5163 34.4473 93.0371 34.4473C93.8314 34.4473 94.4889 34.2227 95.0098 33.7734C95.5371 33.3177 95.8008 32.6504 95.8008 31.7715V30.834ZM106.768 24.9844C106.95 24.9844 107.148 24.9941 107.363 25.0137C107.578 25.0332 107.764 25.0592 107.92 25.0918L107.705 27.2402C107.568 27.2012 107.399 27.1719 107.197 27.1523C107.002 27.1328 106.826 27.123 106.67 27.123C106.26 27.123 105.869 27.1914 105.498 27.3281C105.127 27.4583 104.798 27.6602 104.512 27.9336C104.225 28.2005 104.001 28.5358 103.838 28.9395C103.675 29.3431 103.594 29.8118 103.594 30.3457V36H101.289V25.1895H103.086L103.398 27.0938H103.506C103.721 26.7096 103.988 26.3581 104.307 26.0391C104.626 25.7201 104.99 25.4661 105.4 25.2773C105.817 25.082 106.273 24.9844 106.768 24.9844ZM113.945 34.3398C114.245 34.3398 114.541 34.3138 114.834 34.2617C115.127 34.2031 115.394 34.1348 115.635 34.0566V35.7949C115.381 35.9056 115.052 36 114.648 36.0781C114.245 36.1562 113.825 36.1953 113.389 36.1953C112.777 36.1953 112.227 36.0944 111.738 35.8926C111.25 35.6842 110.863 35.3294 110.576 34.8281C110.29 34.3268 110.146 33.6335 110.146 32.748V26.9375H108.672V25.9121L110.254 25.1016L111.006 22.7871H112.451V25.1895H115.547V26.9375H112.451V32.7188C112.451 33.2656 112.588 33.6725 112.861 33.9395C113.135 34.2064 113.496 34.3398 113.945 34.3398ZM122.139 24.9844C123.102 24.9844 123.929 25.1829 124.619 25.5801C125.309 25.9772 125.84 26.5404 126.211 27.2695C126.582 27.9987 126.768 28.8711 126.768 29.8867V31.1172H119.551C119.577 32.1654 119.857 32.9727 120.391 33.5391C120.931 34.1055 121.686 34.3887 122.656 34.3887C123.346 34.3887 123.965 34.3236 124.512 34.1934C125.065 34.0566 125.635 33.8581 126.221 33.5977V35.4629C125.68 35.7168 125.13 35.9023 124.57 36.0195C124.01 36.1367 123.34 36.1953 122.559 36.1953C121.497 36.1953 120.563 35.9902 119.756 35.5801C118.955 35.1634 118.327 34.5449 117.871 33.7246C117.422 32.9043 117.197 31.8854 117.197 30.668C117.197 29.457 117.402 28.4284 117.812 27.582C118.223 26.7357 118.799 26.0911 119.541 25.6484C120.283 25.2057 121.149 24.9844 122.139 24.9844ZM122.139 26.7129C121.416 26.7129 120.83 26.9473 120.381 27.416C119.938 27.8848 119.678 28.5716 119.6 29.4766H124.521C124.515 28.9362 124.424 28.4577 124.248 28.041C124.079 27.6243 123.818 27.2988 123.467 27.0645C123.122 26.8301 122.679 26.7129 122.139 26.7129ZM132.988 36.1953C131.699 36.1953 130.664 35.7266 129.883 34.7891C129.108 33.8451 128.721 32.4551 128.721 30.6191C128.721 28.7637 129.115 27.3607 129.902 26.4102C130.697 25.4596 131.742 24.9844 133.037 24.9844C133.584 24.9844 134.062 25.0592 134.473 25.209C134.883 25.3522 135.234 25.5475 135.527 25.7949C135.827 26.0423 136.081 26.319 136.289 26.625H136.396C136.364 26.4232 136.325 26.1335 136.279 25.7559C136.24 25.3717 136.221 25.0169 136.221 24.6914V20.8047H138.525V36H136.729L136.318 34.5254H136.221C136.025 34.8379 135.778 35.1211 135.479 35.375C135.186 35.6224 134.834 35.821 134.424 35.9707C134.02 36.1204 133.542 36.1953 132.988 36.1953ZM133.633 34.3301C134.616 34.3301 135.309 34.0469 135.713 33.4805C136.117 32.9141 136.325 32.0645 136.338 30.9316V30.6289C136.338 29.418 136.143 28.4902 135.752 27.8457C135.361 27.1947 134.648 26.8691 133.613 26.8691C132.786 26.8691 132.155 27.2044 131.719 27.875C131.289 28.5391 131.074 29.4668 131.074 30.6582C131.074 31.8496 131.289 32.7611 131.719 33.3926C132.155 34.0176 132.793 34.3301 133.633 34.3301Z" fill="white"/>
</svg>
